<svg width="51" height="51" viewBox="0 0 51 51" fill="none" xmlns="http://www.w3.org/2000/svg">
<path d="M25.5 42.5C30.0087 42.5 34.3327 40.7089 37.5208 37.5208C40.7089 34.3327 42.5 30.0087 42.5 25.5C42.5 20.9913 40.7089 16.6673 37.5208 13.4792C34.3327 10.2911 30.0087 8.5 25.5 8.5C20.9913 8.5 16.6673 10.2911 13.4792 13.4792C10.2911 16.6673 8.5 20.9913 8.5 25.5C8.5 30.0087 10.2911 34.3327 13.4792 37.5208C16.6673 40.7089 20.9913 42.5 25.5 42.5ZM25.5 46.75C13.7636 46.75 4.25 37.2364 4.25 25.5C4.25 13.7636 13.7636 4.25 25.5 4.25C37.2364 4.25 46.75 13.7636 46.75 25.5C46.75 37.2364 37.2364 46.75 25.5 46.75ZM25.5 34C27.7543 34 29.9163 33.1045 31.5104 31.5104C33.1045 29.9163 34 27.7543 34 25.5C34 23.2457 33.1045 21.0837 31.5104 19.4896C29.9163 17.8955 27.7543 17 25.5 17C23.2457 17 21.0837 17.8955 19.4896 19.4896C17.8955 21.0837 17 23.2457 17 25.5C17 27.7543 17.8955 29.9163 19.4896 31.5104C21.0837 33.1045 23.2457 34 25.5 34ZM25.5 38.25C22.1185 38.25 18.8755 36.9067 16.4844 34.5156C14.0933 32.1245 12.75 28.8815 12.75 25.5C12.75 22.1185 14.0933 18.8755 16.4844 16.4844C18.8755 14.0933 22.1185 12.75 25.5 12.75C28.8815 12.75 32.1245 14.0933 34.5156 16.4844C36.9067 18.8755 38.25 22.1185 38.25 25.5C38.25 28.8815 36.9067 32.1245 34.5156 34.5156C32.1245 36.9067 28.8815 38.25 25.5 38.25ZM25.5 29.75C24.3728 29.75 23.2918 29.3022 22.4948 28.5052C21.6978 27.7082 21.25 26.6272 21.25 25.5C21.25 24.3728 21.6978 23.2918 22.4948 22.4948C23.2918 21.6978 24.3728 21.25 25.5 21.25C26.6272 21.25 27.7082 21.6978 28.5052 22.4948C29.3022 23.2918 29.75 24.3728 29.75 25.5C29.75 26.6272 29.3022 27.7082 28.5052 28.5052C27.7082 29.3022 26.6272 29.75 25.5 29.75Z" fill="#E0FE08"/>
</svg>
