<svg width="42" height="42" viewBox="0 0 42 42" fill="none" xmlns="http://www.w3.org/2000/svg">
<path d="M4.76885 36.75C4.44802 36.75 4.15635 36.6701 3.89385 36.5103C3.63135 36.3504 3.42719 36.1387 3.28135 35.875C3.13552 35.6113 3.0556 35.3267 3.0416 35.021C3.0276 34.7153 3.10752 34.4167 3.28135 34.125L19.4689 6.125C19.6439 5.83333 19.8702 5.61458 20.1479 5.46875C20.4255 5.32292 20.7096 5.25 21.0001 5.25C21.2906 5.25 21.5753 5.32292 21.8541 5.46875C22.1329 5.61458 22.3587 5.83333 22.5314 6.125L38.7189 34.125C38.8939 34.4167 38.9744 34.7159 38.9604 35.0228C38.9464 35.3296 38.8659 35.6137 38.7189 35.875C38.5719 36.1363 38.3677 36.3481 38.1064 36.5103C37.845 36.6724 37.5534 36.7523 37.2314 36.75H4.76885ZM7.7876 33.25H34.2126L21.0001 10.5L7.7876 33.25ZM22.2479 30.9977C22.5827 30.6617 22.7501 30.2458 22.7501 29.75C22.7501 29.2542 22.5821 28.8388 22.2461 28.504C21.9101 28.1692 21.4948 28.0012 21.0001 28C20.5054 27.9988 20.0901 28.1668 19.7541 28.504C19.4181 28.8412 19.2501 29.2565 19.2501 29.75C19.2501 30.2435 19.4181 30.6594 19.7541 30.9977C20.0901 31.3361 20.5054 31.5035 21.0001 31.5C21.4948 31.4965 21.9107 31.3302 22.2479 30.9977ZM22.2479 25.746C22.5827 25.4112 22.7501 24.9958 22.7501 24.5V19.25C22.7501 18.7542 22.5821 18.3388 22.2461 18.004C21.9101 17.6692 21.4948 17.5012 21.0001 17.5C20.5054 17.4988 20.0901 17.6668 19.7541 18.004C19.4181 18.3412 19.2501 18.7565 19.2501 19.25V24.5C19.2501 24.9958 19.4181 25.4118 19.7541 25.7478C20.0901 26.0837 20.5054 26.2512 21.0001 26.25C21.4948 26.2488 21.9107 26.0808 22.2479 25.746Z" fill="black"/>
</svg>
