<svg width="22" height="15" viewBox="0 0 22 15" fill="none" xmlns="http://www.w3.org/2000/svg">
<g clip-path="url(#clip0_259_883)">
<path d="M0 0H22V15H0V0ZM13.1083 7.01813L18.899 2.29632L20.3832 1.03173H1.61191L3.31229 2.50368L10.62 8.46969C10.8444 8.65326 11.1589 8.64646 11.3653 8.47309L13.1066 7.01983L13.1083 7.01813ZM18.8515 12.3263L15.074 8.18754L15.8161 7.55014L21.0286 13.2102V1.89858L11.9272 9.31275C11.3096 9.78187 10.6232 9.78357 10.0286 9.28895L0.968131 1.90198L0.973045 13.2153L6.14952 7.54844L6.88176 8.19094L5.69248 9.52181L1.64631 13.97H20.3258L18.8499 12.3297L18.8515 12.3263Z" fill="#E0FE08"/>
</g>
<defs>
<clipPath id="clip0_259_883">
<rect width="22" height="15" fill="white"/>
</clipPath>
</defs>
</svg>
