<svg width="36" height="37" viewBox="0 0 36 37" fill="none" xmlns="http://www.w3.org/2000/svg">
<path d="M34.0174 14.5025L30.0985 18.6581L29.2105 18.8336C28.3652 18.999 27.5134 19.343 26.6383 19.3526C24.0379 19.383 21.4841 19.2171 18.861 19.0734L19.8831 25.8946C19.954 26.368 19.9623 26.7857 19.7528 27.2079L19.3076 29.3699C19.2265 29.7621 19.2835 30.1299 18.9732 30.4572L14.7659 34.8833C14.1846 34.9617 13.6523 35.1333 13.1136 35.2939L10.8651 35.9652C10.4906 36.0774 9.74204 36.0165 9.35447 35.9231L6.93972 35.3408C6.71688 35.2869 6.15946 35.3878 6.01372 35.2503L1.54571 31.0284C1.5074 29.6569 0.823341 28.5347 0.881173 27.1497C0.277206 26.3567 0.490023 25.563 0.840177 24.7493C1.06926 24.2161 1.20621 23.4869 1.30097 22.8909L1.46914 21.8384L5.39857 17.6574C5.97706 17.0423 7.06685 17.2351 8.37303 16.7384C8.98902 16.5046 9.39122 16.4321 10.0473 16.4796C12.3064 16.6447 14.5311 16.7756 16.7736 17.0662L16.3858 14.6461C16.1253 13.0163 15.9777 11.4174 15.893 9.75347L16.1571 7.09147C16.2181 6.49227 16.2643 6.11417 16.7004 5.65529L20.4573 1.69972L23.4616 0.865887C23.7824 0.777014 24.1393 0.455147 24.5042 0.505306L25.8238 0.688097L27.7996 1.02445C28.3794 1.12276 28.8539 1.24432 29.4882 1.18401L34.1669 5.58777C34.2803 7.46016 35.5009 9.30164 35.0955 10.7419L34.3047 13.5555C34.2274 13.8304 34.1781 14.187 34.0166 14.5034L34.0174 14.5025ZM14.0262 33.1813C15.3158 32.0827 16.3508 30.833 17.4698 29.5987C17.9296 29.0917 18.4212 26.7635 18.3518 26.0514C18.1111 23.5566 17.7398 21.2126 17.276 18.689L14.2958 18.2621C12.8048 18.0487 11.3282 18.0218 9.80622 18.0412C8.75197 18.0549 7.71148 18.5637 6.66855 18.7476L3.02862 22.664C2.70165 23.6071 2.40394 24.7138 2.32099 25.6972C2.20483 27.0592 2.77102 29.5769 3.52161 30.8055L6.43061 33.5589L7.47508 33.8971L9.23867 34.3223C10.6051 34.6517 13.1251 33.9474 14.0261 33.1796L14.0262 33.1813ZM33.3585 9.05345L32.774 6.88962C32.711 6.65727 32.5991 6.13179 32.4286 5.9693L29.4133 3.1039L28.5961 2.79185C27.8094 2.49173 26.8773 2.29976 26.0192 2.30187L24.309 2.30502C23.3392 2.41848 22.4372 2.81929 21.4752 3.06952L17.7247 7.04126L17.3541 9.87995L17.5842 12.0321C17.7836 13.8965 17.9841 15.6747 18.3528 17.556C21.1218 17.745 23.7224 17.9231 26.4213 17.8679C27.2859 17.8501 28.1333 17.47 29.027 17.3823L32.4512 13.684C32.9532 13.1411 33.0545 12.2691 33.2649 11.6108C33.5285 10.7827 33.6036 9.96325 33.3576 9.05262L33.3585 9.05345Z" fill="#E0FE08" stroke="#E0FE08"/>
</svg>
