<svg width="30" height="42" viewBox="0 0 30 42" fill="none" xmlns="http://www.w3.org/2000/svg">
<path d="M18.2696 41.4779L12.1419 41.5C11.7731 41.5013 11.4497 41.2685 11.2097 41.0046C10.6387 40.3766 9.75199 39.9501 9.27325 39.2609L7.56291 36.7943L7.5427 30.3216C7.54017 29.4504 7.41385 28.4791 7.12837 27.6704L4.06391 24.9905C3.74432 24.711 3.57127 24.4964 3.36285 24.1128C2.49631 22.5187 1.70177 20.9584 1.0386 19.2589L0.500488 18.7024L0.514383 11.6953L1.2445 10.0284C1.88998 8.55385 2.62515 7.14826 3.32874 5.70757C3.54474 5.26418 3.71022 5.04573 4.0677 4.73107C5.71741 3.27867 7.43027 2.03431 9.3503 0.951192C9.58525 0.818565 9.94273 0.5 10.2244 0.5L19.9433 0.502601L21.4743 1.4622C22.9926 2.41399 24.3859 3.4191 25.735 4.61404C26.1556 4.98722 26.4992 5.33049 26.671 5.8831C27.6259 7.54744 28.4369 9.23129 29.1064 11.0244L29.5005 11.7291L29.4967 18.5204L29.0078 19.2251L26.7038 24.0101C26.527 24.3768 26.3324 24.6485 26.0457 24.9047L22.8638 27.7419C22.7008 28.4284 22.5341 29.2099 22.5328 29.9263L22.5227 36.7995L20.7164 39.2934C20.0835 40.1672 19.0957 40.6119 18.2683 41.4766L18.2696 41.4779ZM19.9092 19.3838C19.7614 19.8506 19.3989 20.0222 19.1462 20.2744L15.742 23.6902V30.3073L20.9905 30.2865C21.0322 29.0304 21.1572 28.0188 21.4389 26.9188L25.02 23.698C26.0192 22.0987 26.8023 20.4422 27.5691 18.6751C27.6815 18.2941 27.9531 17.6934 27.9531 17.3215V12.7979L27.679 11.4664C26.9274 9.62917 26.1379 7.95443 25.1665 6.25108C23.8554 4.8754 22.3964 3.81568 20.7732 2.84828C20.1479 2.4751 19.4519 2.06292 18.6928 2.06292L11.0139 2.06682C10.7006 2.06682 10.184 2.30867 9.90105 2.44C8.03912 3.45551 6.45131 4.66605 4.89887 6.13145C3.86685 7.86601 3.04074 9.60056 2.30178 11.5068L2.01883 13.0398C2.07567 14.5182 1.77251 16.0707 2.08577 17.4789C2.58978 19.74 3.84285 21.7047 4.92792 23.6694L8.53934 26.8863C8.86019 27.9837 9.02693 29.0421 9.07367 30.2865L14.2186 30.2787L14.2034 23.6967L10.1158 19.6269C9.82652 19.3383 10.184 18.705 10.4909 18.5841C10.8775 18.432 11.2147 18.5295 11.5356 18.8507L14.9853 22.299L18.4022 18.839C18.6549 18.5841 19.1058 18.4476 19.4077 18.5594C19.6401 18.6452 20.0001 19.1055 19.9117 19.3825L19.9092 19.3838ZM21.0296 31.8143L9.03198 31.8169V35.0663L21.0296 35.0637V31.8143ZM17.2654 39.9098C17.6885 39.9085 18.2039 39.4716 18.4919 39.2232L19.433 38.4093L20.7303 36.611L9.38946 36.6084C9.83031 37.3469 10.1448 37.975 10.6602 38.4535L11.6695 39.3897C11.9891 39.6861 12.5373 39.9293 12.9908 39.9267L17.2641 39.9098H17.2654Z" fill="#E0FE08" stroke="#E0FE08"/>
</svg>
