<svg width="37" height="37" viewBox="0 0 37 37" fill="none" xmlns="http://www.w3.org/2000/svg">
<path d="M12.9524 36.4844L7.12055 36.5005C6.73242 36.5005 4.63131 35.5918 4.23572 35.182L1.48027 32.327C1.03741 31.8677 0.866979 30.8736 0.502488 30.309L0.5 24.3602L1.47156 22.0091L8.91066 14.5004L10.8762 13.8355C11.38 13.6659 12.0965 13.7971 12.6688 13.7835C12.7795 13.1199 12.5294 12.283 12.7596 11.6689L13.4674 9.77348L21.6591 1.48474L23.9344 0.500488L30.2688 0.535154L32.2468 1.45874C33.3825 2.57546 34.629 3.59685 35.5247 4.84728L36.5 6.9272L36.4838 12.8476L35.674 14.8222L28.0048 22.5081C27.4176 22.9166 26.5343 23.2608 25.8576 23.4391L23.851 23.5344C23.81 24.2364 23.9866 25.0807 23.7615 25.6985L23.0947 27.5259L15.1518 35.4395L12.9512 36.4844H12.9524ZM11.8751 34.9765C12.7148 34.9802 13.8394 34.6286 14.4502 34.0219L21.4949 27.0133C22.8583 25.6564 22.1269 22.8931 22.5162 22.3174C22.6245 22.1565 23.0449 22.0661 23.2614 22.0586L25.1821 21.9868C25.8016 21.9633 26.7831 21.6117 27.2447 21.1524L33.5903 14.8309C34.3442 14.0794 34.9699 13.1459 34.9649 11.9983L34.9462 7.68117C34.9425 6.92101 34.5507 5.91695 34.0593 5.39697L32.3513 3.58942C31.5277 2.71783 30.3957 2.01957 29.1368 2.01462L25.3799 1.99853C24.4531 1.99481 23.2228 2.10252 22.4914 2.83421L14.8271 10.5039C14.1952 11.5971 14.0732 12.7176 14.1541 14.0002C14.2561 14.4731 14.0521 15.2172 13.4749 15.2345L11.232 15.3014C10.8028 15.3138 10.0589 15.6517 9.65581 15.8771L2.72302 22.8399C2.41078 23.5034 2.00897 24.401 2.01021 25.1302L2.01892 29.4325C2.02016 30.1691 2.45307 31.1992 2.9457 31.7241L4.58528 33.4735C4.9448 33.8573 5.40259 34.2683 5.91263 34.4738C6.30822 34.6323 6.98122 34.9542 7.38427 34.9566L11.8739 34.9789L11.8751 34.9765Z" fill="#E0FE08"/>
<path d="M18.0431 25.2149C17.6073 25.6472 17.2726 25.9084 16.7654 26.1065C14.5578 26.9711 12.4189 26.414 11.1711 24.421C10.2631 22.9722 10.3124 21.1645 11.1024 19.5382L17.999 12.6662C18.3557 12.3111 18.667 12.1284 19.1132 11.9302C20.5646 11.2856 22.0303 11.359 23.4091 12.1991C24.0447 12.5864 24.7283 13.1783 25.0292 13.9027C25.4313 14.8715 25.6868 15.987 25.3301 16.9636L24.7413 18.5719L18.0457 25.2162L18.0431 25.2149ZM15.0118 24.973C15.5073 24.9588 16.3906 24.6848 16.7123 24.3644L23.0032 18.1383C23.9967 17.154 24.225 15.3797 23.3028 14.1793C22.758 13.4691 21.6529 12.7794 20.623 13.1049L19.3674 13.5025L12.5084 20.314C12.2295 20.9046 12.0765 21.7113 12.1374 22.3727C12.2697 23.7944 13.4514 25.0167 15.0105 24.9717L15.0118 24.973Z" fill="#E0FE08"/>
<path d="M12.9524 36.4844L7.12055 36.5005C6.73242 36.5005 4.63131 35.5918 4.23572 35.182L1.48027 32.327C1.03741 31.8677 0.866979 30.8736 0.502488 30.309L0.5 24.3602L1.47156 22.0091L8.91066 14.5004L10.8762 13.8355C11.38 13.6659 12.0965 13.7971 12.6688 13.7835C12.7795 13.1199 12.5294 12.283 12.7596 11.6689L13.4674 9.77348L21.6591 1.48474L23.9344 0.500488L30.2688 0.535154L32.2468 1.45874C33.3825 2.57546 34.629 3.59685 35.5247 4.84728L36.5 6.9272L36.4838 12.8476L35.674 14.8222L28.0048 22.5081C27.4176 22.9166 26.5343 23.2608 25.8576 23.4391L23.851 23.5344C23.81 24.2364 23.9866 25.0807 23.7615 25.6985L23.0947 27.5259L15.1518 35.4395L12.9512 36.4844H12.9524ZM11.8751 34.9765C12.7148 34.9802 13.8394 34.6286 14.4502 34.0219L21.4949 27.0133C22.8583 25.6564 22.1269 22.8931 22.5162 22.3174C22.6245 22.1565 23.0449 22.0661 23.2614 22.0586L25.1821 21.9868C25.8016 21.9633 26.7831 21.6117 27.2447 21.1524L33.5903 14.8309C34.3442 14.0794 34.9699 13.1459 34.9649 11.9983L34.9462 7.68117C34.9425 6.92101 34.5507 5.91695 34.0593 5.39697L32.3513 3.58942C31.5277 2.71783 30.3957 2.01957 29.1368 2.01462L25.3799 1.99853C24.4531 1.99481 23.2228 2.10252 22.4914 2.83421L14.8271 10.5039C14.1952 11.5971 14.0732 12.7176 14.1541 14.0002C14.2561 14.4731 14.0521 15.2172 13.4749 15.2345L11.232 15.3014C10.8028 15.3138 10.0589 15.6517 9.65581 15.8771L2.72302 22.8399C2.41078 23.5034 2.00897 24.401 2.01021 25.1302L2.01892 29.4325C2.02016 30.1691 2.45307 31.1992 2.9457 31.7241L4.58528 33.4735C4.9448 33.8573 5.40259 34.2683 5.91263 34.4738C6.30822 34.6323 6.98122 34.9542 7.38427 34.9566L11.8739 34.9789L11.8751 34.9765Z" stroke="#E0FE08"/>
<path d="M18.0431 25.2149C17.6073 25.6472 17.2726 25.9084 16.7654 26.1065C14.5578 26.9711 12.4189 26.414 11.1711 24.421C10.2631 22.9722 10.3124 21.1645 11.1024 19.5382L17.999 12.6662C18.3557 12.3111 18.667 12.1284 19.1132 11.9302C20.5646 11.2856 22.0303 11.359 23.4091 12.1991C24.0447 12.5864 24.7283 13.1783 25.0292 13.9027C25.4313 14.8715 25.6868 15.987 25.3301 16.9636L24.7413 18.5719L18.0457 25.2162L18.0431 25.2149ZM15.0118 24.973C15.5073 24.9588 16.3906 24.6848 16.7123 24.3644L23.0032 18.1383C23.9967 17.154 24.225 15.3797 23.3028 14.1793C22.758 13.4691 21.6529 12.7794 20.623 13.1049L19.3674 13.5025L12.5084 20.314C12.2295 20.9046 12.0765 21.7113 12.1374 22.3727C12.2697 23.7944 13.4514 25.0167 15.0105 24.9717L15.0118 24.973Z" stroke="#E0FE08"/>
</svg>
