<svg width="97" height="95" viewBox="0 0 97 95" fill="none" xmlns="http://www.w3.org/2000/svg">
<path d="M86.8758 54.4398V11.61L75.3116 0H11.5909L0 11.6153V69.4623L7.5637 77.0243L7.6117 95L28.2918 80.7038H50.5015L49.1466 77.083L27.2144 77.0937L11.1375 88.175V75.5877L3.54182 67.999V13.0839L13.0098 3.60476H73.9514L83.334 12.9825V52.6027C74.0421 49.03 63.5073 52.2129 57.8639 60.2875C54.4821 65.1633 53.1326 70.9897 54.3754 77.0563C54.3861 77.0563 54.3914 77.0723 54.3807 77.083C54.3807 77.083 54.7328 78.9895 55.5382 80.7038C57.7038 85.8573 61.6404 89.9587 66.7824 92.2604C75.2956 96.0734 85.0996 93.8732 91.2978 87.1016C100.483 76.9015 98.2587 61.8469 86.8758 54.4398ZM75.4609 90.5621C65.5716 90.5621 57.5598 82.5409 57.5598 72.6398C57.5598 62.7388 65.5716 54.7175 75.4609 54.7175C85.3503 54.7175 93.362 62.7388 93.362 72.6398C93.362 82.5409 85.3503 90.5621 75.4609 90.5621Z" fill="#E0FE08"/>
<path d="M63.9772 27.0223L18.387 27.0276V23.4336L67.295 23.4442L63.9772 27.0223Z" fill="#E0FE08"/>
<path d="M63.9339 42.8406L18.3757 42.8512L18.381 39.2305H67.337L63.9339 42.8406Z" fill="#E0FE08"/>
<path d="M46.3261 58.883H18.397L18.3757 55.2783H49.7079L46.3261 58.883Z" fill="#E0FE08"/>
<path d="M84.4758 78.8614L81.9635 81.3447L73.317 72.7947L73.3223 60.5279L76.8215 60.5225V71.2941L84.4758 78.8614Z" fill="#E0FE08"/>
</svg>
