<svg width="15" height="22" viewBox="0 0 15 22" fill="none" xmlns="http://www.w3.org/2000/svg">
<g clip-path="url(#clip0_259_889)">
<path d="M14.0426 22H0.961063V20.9401L7.12465 20.9366L4.99946 17.5318L0.874501 10.7961C-0.517561 8.52332 -0.144814 5.59667 1.27375 3.40827C3.21875 0.406033 7.08578 -0.831423 10.384 0.585323C13.1663 1.77884 15.0248 4.48225 15 7.51613C14.9912 8.6657 14.7439 9.83285 14.138 10.8154L8.39305 20.1385L7.92137 20.9366L14.0496 20.9418L14.0408 22.0017L14.0426 22ZM7.52743 19.5638L11.9121 12.5117L13.1928 10.3936C14.2086 8.71316 14.2122 6.71987 13.426 4.93927C12.3608 2.52588 9.9494 0.998395 7.3278 1.08101C4.73624 1.16362 2.47679 2.74911 1.51047 5.18711C0.782639 7.0222 0.925732 9.02604 1.98921 10.71L5.01889 15.5948L7.52743 19.5638Z" fill="#E0FE08"/>
<path d="M10.7639 7.52293C10.7639 9.31056 9.3065 10.7607 7.50989 10.7607C5.71328 10.7607 4.25586 9.31056 4.25586 7.52293C4.25586 5.7353 5.71328 4.28516 7.50989 4.28516C9.3065 4.28516 10.7639 5.7353 10.7639 7.52293ZM9.72695 7.52117C9.72695 6.30481 8.7359 5.32047 7.51343 5.32047C6.29096 5.32047 5.29991 6.30657 5.29991 7.52117C5.29991 8.73578 6.29096 9.72188 7.51343 9.72188C8.7359 9.72188 9.72695 8.73578 9.72695 7.52117Z" fill="#E0FE08"/>
</g>
<defs>
<clipPath id="clip0_259_889">
<rect width="15" height="22" fill="white"/>
</clipPath>
</defs>
</svg>
