<svg width="28" height="43" viewBox="0 0 28 43" fill="none" xmlns="http://www.w3.org/2000/svg">
<path d="M19.8383 31.5966C19.5625 31.7502 19.0722 32.1525 18.7589 32.1525L9.13378 32.1636L6.36672 30.6128L2.07075 33.5243C1.60833 33.8371 0.763938 33.7895 0.50751 33.2767L0.5 24.9502C2.12869 22.8125 3.81746 20.8715 5.78627 18.9471L5.79056 11.6298L6.08347 10.9301C6.70791 9.3285 7.36668 7.78766 8.24433 6.31757L8.74109 5.48525L9.57045 4.25059L12.6444 1.09486C13.0306 0.698047 14.0595 0.303442 14.5316 0.608515L15.4586 1.2065L18.5283 4.35891L19.3437 5.61899C19.4746 5.82127 19.628 6.09981 19.7471 6.32641C20.5475 7.84403 21.2642 9.33844 21.8972 10.9357C22.0109 11.0871 22.2234 11.4331 22.2234 11.611L22.2373 18.9792C23.9604 20.6836 25.4786 22.4521 27.0215 24.3124C27.2554 24.5943 27.456 24.8076 27.5 25.2044L27.4807 33.3419C27.2253 33.6801 26.4936 33.8868 26.117 33.6359L21.5893 30.6194L19.8372 31.5954L19.8383 31.5966ZM17.7997 30.6714C18.5562 30.6725 19.1591 30.51 19.804 30.1298C20.2117 29.8888 20.614 29.6744 20.9262 29.2665L20.9305 12.4135L20.658 11.4264C19.9713 9.67557 19.2664 7.97115 18.2364 6.44136L17.2225 4.93479L15.0295 2.64454C14.8202 2.42679 14.375 2.09851 14.1175 1.96255C13.6862 1.73596 11.0801 4.42413 10.5425 5.23544L9.58762 6.6779C8.59946 8.17121 7.92245 9.79163 7.28943 11.4861L7.02978 12.4444V29.4058L8.34196 30.2237C8.69817 30.4459 9.16596 30.6548 9.62303 30.6559L17.8008 30.6714H17.7997ZM1.89587 31.9812L5.74335 29.4168L5.73799 20.9279C4.42903 22.1791 3.4237 23.4116 2.3304 24.7313C2.09865 24.9833 1.87977 25.3945 1.88085 25.7626L1.89587 31.9812ZM26.1192 25.9759C26.1224 25.3779 25.8713 24.9833 25.5012 24.5589C24.4347 23.3397 23.4959 22.0774 22.276 20.9909L22.2566 29.4533L26.0923 32.021L26.1192 25.9759Z" fill="#E0FE08"/>
<path d="M14.6599 38.2651L14.647 42.0055C14.647 42.2863 14.2114 42.5107 14.0022 42.4996C13.793 42.4886 13.3606 42.2553 13.3606 42.0188L13.3531 38.5558C13.3531 38.296 13.0988 37.9523 12.9057 37.7721L10.7566 35.7803L10.7363 37.9235C10.733 38.254 10.3983 38.5746 10.1365 38.5911C9.77813 38.6144 9.38223 38.3237 9.38223 37.9125V34.8065C9.38116 34.2726 9.94122 33.9709 10.3747 34.14L11.1161 34.2693L14.0172 37.0647L16.8648 34.2582L17.8132 34.0681C18.1458 34.0891 18.5428 34.3467 18.5439 34.7258L18.5546 37.9114C18.5546 38.2352 18.1973 38.5447 17.9548 38.5536C17.6072 38.5668 17.2349 38.3027 17.2296 37.9147L17.2006 35.7847L14.6599 38.264V38.2651Z" fill="#E0FE08"/>
<path d="M18.1123 13.8066C18.1123 16.1499 16.2679 18.0489 13.9933 18.0489C11.7188 18.0489 9.87441 16.1488 9.87441 13.8066C9.87441 11.4644 11.7188 9.56432 13.9933 9.56432C16.2679 9.56432 18.1123 11.4644 18.1123 13.8066ZM16.8141 13.8022C16.8141 12.195 15.5491 10.8929 13.9901 10.8929C12.4312 10.8929 11.1662 12.195 11.1662 13.8022C11.1662 15.4093 12.4312 16.7114 13.9901 16.7114C15.5491 16.7114 16.8141 15.4093 16.8141 13.8022Z" fill="#E0FE08"/>
<path d="M19.8383 31.5966C19.5625 31.7502 19.0722 32.1525 18.7589 32.1525L9.13378 32.1636L6.36672 30.6128L2.07075 33.5243C1.60833 33.8371 0.763938 33.7895 0.50751 33.2767L0.5 24.9502C2.12869 22.8125 3.81746 20.8715 5.78627 18.9471L5.79056 11.6298L6.08347 10.9301C6.70791 9.3285 7.36668 7.78766 8.24433 6.31757L8.74109 5.48525L9.57045 4.25059L12.6444 1.09486C13.0306 0.698047 14.0595 0.303442 14.5316 0.608515L15.4586 1.2065L18.5283 4.35891L19.3437 5.61899C19.4746 5.82127 19.628 6.09981 19.7471 6.32641C20.5475 7.84403 21.2642 9.33844 21.8972 10.9357C22.0109 11.0871 22.2234 11.4331 22.2234 11.611L22.2373 18.9792C23.9604 20.6836 25.4786 22.4521 27.0215 24.3124C27.2554 24.5943 27.456 24.8076 27.5 25.2044L27.4807 33.3419C27.2253 33.6801 26.4936 33.8868 26.117 33.6359L21.5893 30.6194L19.8372 31.5954L19.8383 31.5966ZM17.7997 30.6714C18.5562 30.6725 19.1591 30.51 19.804 30.1298C20.2117 29.8888 20.614 29.6744 20.9262 29.2665L20.9305 12.4135L20.658 11.4264C19.9713 9.67557 19.2664 7.97115 18.2364 6.44136L17.2225 4.93479L15.0295 2.64454C14.8202 2.42679 14.375 2.09851 14.1175 1.96255C13.6862 1.73596 11.0801 4.42413 10.5425 5.23544L9.58762 6.6779C8.59946 8.17121 7.92245 9.79163 7.28943 11.4861L7.02978 12.4444V29.4058L8.34196 30.2237C8.69817 30.4459 9.16596 30.6548 9.62303 30.6559L17.8008 30.6714H17.7997ZM1.89587 31.9812L5.74335 29.4168L5.73799 20.9279C4.42903 22.1791 3.4237 23.4116 2.3304 24.7313C2.09865 24.9833 1.87977 25.3945 1.88085 25.7626L1.89587 31.9812ZM26.1192 25.9759C26.1224 25.3779 25.8713 24.9833 25.5012 24.5589C24.4347 23.3397 23.4959 22.0774 22.276 20.9909L22.2566 29.4533L26.0923 32.021L26.1192 25.9759Z" stroke="#E0FE08"/>
<path d="M14.6599 38.2651L14.647 42.0055C14.647 42.2863 14.2114 42.5107 14.0022 42.4996C13.793 42.4886 13.3606 42.2553 13.3606 42.0188L13.3531 38.5558C13.3531 38.296 13.0988 37.9523 12.9057 37.7721L10.7566 35.7803L10.7363 37.9235C10.733 38.254 10.3983 38.5746 10.1365 38.5911C9.77813 38.6144 9.38223 38.3237 9.38223 37.9125V34.8065C9.38116 34.2726 9.94122 33.9709 10.3747 34.14L11.1161 34.2693L14.0172 37.0647L16.8648 34.2582L17.8132 34.0681C18.1458 34.0891 18.5428 34.3467 18.5439 34.7258L18.5546 37.9114C18.5546 38.2352 18.1973 38.5447 17.9548 38.5536C17.6072 38.5668 17.2349 38.3027 17.2296 37.9147L17.2006 35.7847L14.6599 38.264V38.2651Z" stroke="#E0FE08"/>
<path d="M18.1123 13.8066C18.1123 16.1499 16.2679 18.0489 13.9933 18.0489C11.7188 18.0489 9.87441 16.1488 9.87441 13.8066C9.87441 11.4644 11.7188 9.56432 13.9933 9.56432C16.2679 9.56432 18.1123 11.4644 18.1123 13.8066ZM16.8141 13.8022C16.8141 12.195 15.5491 10.8929 13.9901 10.8929C12.4312 10.8929 11.1662 12.195 11.1662 13.8022C11.1662 15.4093 12.4312 16.7114 13.9901 16.7114C15.5491 16.7114 16.8141 15.4093 16.8141 13.8022Z" stroke="#E0FE08"/>
</svg>
